<mxfile host="app.diagrams.net" modified="2021-09-02T09:25:49.545Z" agent="5.0 (Macintosh; Intel Mac OS X 10_15_7) AppleWebKit/537.36 (KHTML, like Gecko) Chrome/86.0.4240.193 Safari/537.36" etag="qC-xIaxNTxylX_3oYTMH" version="14.9.9" type="github">
  <diagram id="bpU8QcJGSwIDjXOAJaQ4" name="Page-1">
    <mxGraphModel dx="1773" dy="536" grid="1" gridSize="10" guides="1" tooltips="1" connect="1" arrows="1" fold="1" page="1" pageScale="1" pageWidth="827" pageHeight="1169" math="0" shadow="0">
      <root>
        <mxCell id="0" />
        <mxCell id="1" parent="0" />
        <mxCell id="M6Y6g6HmPeWxvRDyc1kY-9" style="edgeStyle=none;rounded=0;orthogonalLoop=1;jettySize=auto;html=1;exitX=0.5;exitY=1;exitDx=0;exitDy=0;entryX=0.5;entryY=0;entryDx=0;entryDy=0;fillColor=#dae8fc;strokeColor=#6c8ebf;" edge="1" parent="1" source="M6Y6g6HmPeWxvRDyc1kY-1" target="M6Y6g6HmPeWxvRDyc1kY-2">
          <mxGeometry relative="1" as="geometry" />
        </mxCell>
        <mxCell id="M6Y6g6HmPeWxvRDyc1kY-1" value="0&lt;br&gt;处理中" style="ellipse;whiteSpace=wrap;html=1;aspect=fixed;fillColor=#dae8fc;strokeColor=#6c8ebf;" vertex="1" parent="1">
          <mxGeometry x="210" y="230" width="80" height="80" as="geometry" />
        </mxCell>
        <mxCell id="M6Y6g6HmPeWxvRDyc1kY-4" style="rounded=0;orthogonalLoop=1;jettySize=auto;html=1;exitX=0;exitY=1;exitDx=0;exitDy=0;fillColor=#dae8fc;strokeColor=#6c8ebf;" edge="1" parent="1" source="M6Y6g6HmPeWxvRDyc1kY-2" target="M6Y6g6HmPeWxvRDyc1kY-3">
          <mxGeometry relative="1" as="geometry" />
        </mxCell>
        <mxCell id="M6Y6g6HmPeWxvRDyc1kY-7" style="edgeStyle=none;rounded=0;orthogonalLoop=1;jettySize=auto;html=1;exitX=1;exitY=1;exitDx=0;exitDy=0;entryX=0;entryY=0;entryDx=0;entryDy=0;fillColor=#dae8fc;strokeColor=#6c8ebf;" edge="1" parent="1" source="M6Y6g6HmPeWxvRDyc1kY-2" target="M6Y6g6HmPeWxvRDyc1kY-6">
          <mxGeometry relative="1" as="geometry" />
        </mxCell>
        <mxCell id="M6Y6g6HmPeWxvRDyc1kY-2" value="7&lt;br&gt;待审核" style="ellipse;whiteSpace=wrap;html=1;aspect=fixed;fillColor=#dae8fc;strokeColor=#6c8ebf;" vertex="1" parent="1">
          <mxGeometry x="210" y="340" width="80" height="80" as="geometry" />
        </mxCell>
        <mxCell id="M6Y6g6HmPeWxvRDyc1kY-17" style="edgeStyle=none;rounded=0;orthogonalLoop=1;jettySize=auto;html=1;exitX=0.5;exitY=1;exitDx=0;exitDy=0;entryX=0.5;entryY=0;entryDx=0;entryDy=0;fillColor=#dae8fc;strokeColor=#6c8ebf;" edge="1" parent="1" source="M6Y6g6HmPeWxvRDyc1kY-3" target="M6Y6g6HmPeWxvRDyc1kY-13">
          <mxGeometry relative="1" as="geometry" />
        </mxCell>
        <mxCell id="M6Y6g6HmPeWxvRDyc1kY-18" style="edgeStyle=none;rounded=0;orthogonalLoop=1;jettySize=auto;html=1;exitX=0.5;exitY=1;exitDx=0;exitDy=0;entryX=0.5;entryY=0;entryDx=0;entryDy=0;fillColor=#dae8fc;strokeColor=#6c8ebf;" edge="1" parent="1" source="M6Y6g6HmPeWxvRDyc1kY-3" target="M6Y6g6HmPeWxvRDyc1kY-14">
          <mxGeometry relative="1" as="geometry" />
        </mxCell>
        <mxCell id="M6Y6g6HmPeWxvRDyc1kY-19" style="edgeStyle=none;rounded=0;orthogonalLoop=1;jettySize=auto;html=1;exitX=0.5;exitY=1;exitDx=0;exitDy=0;entryX=0.5;entryY=0;entryDx=0;entryDy=0;fillColor=#dae8fc;strokeColor=#6c8ebf;" edge="1" parent="1" source="M6Y6g6HmPeWxvRDyc1kY-3" target="M6Y6g6HmPeWxvRDyc1kY-15">
          <mxGeometry relative="1" as="geometry" />
        </mxCell>
        <mxCell id="M6Y6g6HmPeWxvRDyc1kY-20" style="edgeStyle=none;rounded=0;orthogonalLoop=1;jettySize=auto;html=1;exitX=0.5;exitY=1;exitDx=0;exitDy=0;entryX=0.5;entryY=0;entryDx=0;entryDy=0;fillColor=#dae8fc;strokeColor=#6c8ebf;" edge="1" parent="1" source="M6Y6g6HmPeWxvRDyc1kY-3" target="M6Y6g6HmPeWxvRDyc1kY-16">
          <mxGeometry relative="1" as="geometry" />
        </mxCell>
        <mxCell id="M6Y6g6HmPeWxvRDyc1kY-3" value="6&lt;br&gt;待付款" style="ellipse;whiteSpace=wrap;html=1;aspect=fixed;fillColor=#dae8fc;strokeColor=#6c8ebf;" vertex="1" parent="1">
          <mxGeometry x="130" y="505" width="80" height="80" as="geometry" />
        </mxCell>
        <mxCell id="M6Y6g6HmPeWxvRDyc1kY-5" value="审核通过" style="text;html=1;align=center;verticalAlign=middle;resizable=0;points=[];autosize=1;strokeColor=#6c8ebf;fillColor=#dae8fc;" vertex="1" parent="1">
          <mxGeometry x="120" y="440" width="60" height="20" as="geometry" />
        </mxCell>
        <mxCell id="M6Y6g6HmPeWxvRDyc1kY-11" style="edgeStyle=none;rounded=0;orthogonalLoop=1;jettySize=auto;html=1;exitX=0.5;exitY=1;exitDx=0;exitDy=0;entryX=0.5;entryY=0;entryDx=0;entryDy=0;fillColor=#dae8fc;strokeColor=#6c8ebf;" edge="1" parent="1" source="M6Y6g6HmPeWxvRDyc1kY-6" target="M6Y6g6HmPeWxvRDyc1kY-10">
          <mxGeometry relative="1" as="geometry" />
        </mxCell>
        <mxCell id="M6Y6g6HmPeWxvRDyc1kY-6" value="5&lt;br&gt;已驳回" style="ellipse;whiteSpace=wrap;html=1;aspect=fixed;fillColor=#dae8fc;strokeColor=#6c8ebf;" vertex="1" parent="1">
          <mxGeometry x="310" y="505" width="80" height="80" as="geometry" />
        </mxCell>
        <mxCell id="M6Y6g6HmPeWxvRDyc1kY-8" value="审核驳回" style="text;html=1;align=center;verticalAlign=middle;resizable=0;points=[];autosize=1;strokeColor=#6c8ebf;fillColor=#dae8fc;" vertex="1" parent="1">
          <mxGeometry x="330" y="440" width="60" height="20" as="geometry" />
        </mxCell>
        <mxCell id="M6Y6g6HmPeWxvRDyc1kY-10" value="8&lt;br&gt;已退还" style="ellipse;whiteSpace=wrap;html=1;aspect=fixed;fillColor=#dae8fc;strokeColor=#6c8ebf;" vertex="1" parent="1">
          <mxGeometry x="340" y="650" width="80" height="80" as="geometry" />
        </mxCell>
        <mxCell id="M6Y6g6HmPeWxvRDyc1kY-12" value="账户加账后" style="text;html=1;align=center;verticalAlign=middle;resizable=0;points=[];autosize=1;strokeColor=#6c8ebf;fillColor=#dae8fc;" vertex="1" parent="1">
          <mxGeometry x="374" y="600" width="80" height="20" as="geometry" />
        </mxCell>
        <mxCell id="M6Y6g6HmPeWxvRDyc1kY-13" value="1&lt;br&gt;提取成功" style="ellipse;whiteSpace=wrap;html=1;aspect=fixed;fillColor=#dae8fc;strokeColor=#6c8ebf;" vertex="1" parent="1">
          <mxGeometry x="-30" y="640" width="80" height="80" as="geometry" />
        </mxCell>
        <mxCell id="M6Y6g6HmPeWxvRDyc1kY-14" value="4&lt;br&gt;已撤销" style="ellipse;whiteSpace=wrap;html=1;aspect=fixed;fillColor=#dae8fc;strokeColor=#6c8ebf;" vertex="1" parent="1">
          <mxGeometry x="60" y="640" width="80" height="80" as="geometry" />
        </mxCell>
        <mxCell id="M6Y6g6HmPeWxvRDyc1kY-15" value="2&lt;br&gt;提取失败" style="ellipse;whiteSpace=wrap;html=1;aspect=fixed;fillColor=#dae8fc;strokeColor=#6c8ebf;" vertex="1" parent="1">
          <mxGeometry x="150" y="640" width="80" height="80" as="geometry" />
        </mxCell>
        <mxCell id="M6Y6g6HmPeWxvRDyc1kY-16" value="5&lt;br&gt;已驳回" style="ellipse;whiteSpace=wrap;html=1;aspect=fixed;fillColor=#dae8fc;strokeColor=#6c8ebf;" vertex="1" parent="1">
          <mxGeometry x="240" y="640" width="80" height="80" as="geometry" />
        </mxCell>
        <mxCell id="M6Y6g6HmPeWxvRDyc1kY-21" value="提取单状态流转" style="shape=note;strokeWidth=2;fontSize=14;size=20;whiteSpace=wrap;html=1;fillColor=#fff2cc;strokeColor=#d6b656;fontColor=#666600;" vertex="1" parent="1">
          <mxGeometry x="359" y="300" width="161" height="80" as="geometry" />
        </mxCell>
      </root>
    </mxGraphModel>
  </diagram>
</mxfile>
